<?xml version="1.0" standalone="no"?>
<!DOCTYPE svg PUBLIC "-//W3C//DTD SVG 20010904//EN"
 "http://www.w3.org/TR/2001/REC-SVG-20010904/DTD/svg10.dtd">
<svg version="1.0" xmlns="http://www.w3.org/2000/svg"
 width="370.000000pt" height="370.000000pt" viewBox="0 0 370.000000 370.000000"
 preserveAspectRatio="xMidYMid meet">
<metadata>
Created by potrace 1.14, written by Peter Selinger 2001-2017
</metadata>
<g transform="translate(0.000000,370.000000) scale(0.100000,-0.100000)"
fill="#000000" stroke="none">
<path d="M1950 2962 c-82 -9 -232 -48 -300 -76 -93 -40 -216 -113 -283 -169
-39 -33 -46 -42 -33 -49 11 -6 31 5 75 39 82 67 182 124 276 160 71 28 115 39
220 58 17 3 75 6 131 6 530 4 976 -412 1017 -951 3 -33 9 -46 21 -48 15 -3 17
3 11 60 -30 322 -175 583 -429 772 -110 82 -292 158 -444 186 -62 11 -213 18
-262 12z"/>
<path d="M952 2679 c-160 -20 -329 -112 -423 -230 l-31 -39 22 -35 c25 -41 33
-43 53 -12 54 83 177 172 288 207 76 24 220 33 281 17 l27 -7 -40 -63 c-114
-175 -171 -369 -169 -572 1 -147 25 -273 79 -404 17 -41 28 -77 26 -81 -4 -7
-74 -5 -133 5 -54 8 -142 43 -200 77 -56 34 -166 143 -184 184 -11 24 -11 24
-41 -16 l-29 -40 25 -34 c132 -173 320 -266 534 -264 117 1 181 16 293 70 112
54 230 170 284 280 95 191 99 394 13 583 -27 59 -90 150 -131 190 -143 139
-348 208 -544 184z m368 -161 c84 -48 182 -153 223 -240 44 -93 59 -158 58
-255 -1 -220 -122 -410 -326 -511 -85 -42 -104 -44 -125 -7 -33 60 -76 185
-96 280 -13 63 -12 260 2 325 18 87 50 182 86 255 29 61 109 185 118 185 3 0
30 -14 60 -32z"/>
<path d="M1978 2189 c-226 -34 -319 -295 -161 -453 60 -60 115 -81 208 -80 66
0 89 5 131 26 206 107 199 386 -11 484 -58 27 -101 33 -167 23z m97 -70 c87
-23 149 -91 158 -177 7 -57 -6 -99 -45 -146 -97 -117 -293 -95 -359 40 -30 63
-24 148 15 198 57 76 144 108 231 85z"/>
<path d="M2579 2183 c-97 -25 -173 -98 -199 -193 -26 -94 5 -195 81 -264 60
-54 118 -75 201 -72 231 8 350 278 196 447 -71 78 -174 109 -279 82z m170 -83
c64 -32 111 -111 111 -184 0 -37 -31 -107 -59 -135 -11 -11 -39 -30 -63 -42
-61 -31 -154 -23 -211 19 -135 97 -103 303 55 358 45 16 120 9 167 -16z"/>
<path d="M3034 1890 c-30 -12 -64 -58 -64 -87 0 -90 103 -136 169 -74 36 34
41 76 14 122 -24 40 -76 57 -119 39z m70 -56 c20 -19 21 -58 2 -73 -25 -21
-69 -9 -80 21 -17 50 42 89 78 52z"/>
<path d="M3009 1602 c-55 -167 -132 -293 -251 -408 -138 -133 -318 -232 -483
-265 -103 -20 -123 -22 -231 -22 -190 1 -389 63 -561 176 -77 50 -125 94 -202
185 -52 59 -73 73 -85 53 -10 -15 209 -228 281 -274 122 -78 251 -128 393
-153 14 -3 32 -8 40 -11 16 -7 1420 -13 1432 -6 4 2 5 9 2 16 -3 9 -120 12
-509 12 -278 0 -505 1 -505 2 0 1 24 9 53 19 72 23 204 93 280 147 167 119
307 307 372 497 29 86 29 86 11 93 -11 4 -21 -12 -37 -61z"/>
</g>
</svg>
